<?xml version="1.0" encoding="utf-8"?>
<!-- Generator: Adobe Illustrator 18.0.0, SVG Export Plug-In . SVG Version: 6.00 Build 0)  -->
<!DOCTYPE svg PUBLIC "-//W3C//DTD SVG 1.1//EN" "http://www.w3.org/Graphics/SVG/1.1/DTD/svg11.dtd">
<svg version="1.1" id="Layer_1" xmlns="http://www.w3.org/2000/svg" xmlns:xlink="http://www.w3.org/1999/xlink" x="0px" y="0px"
	 viewBox="34.6 16.2 64 64" enable-background="new 34.6 16.2 64 64" xml:space="preserve">
<path display="none" fill="#CE2A23" d="M159.6,70.4h-0.8h-29.2c-6.2,0.5-2.6-6.2-2.6-6.2l17.5-35.1l-39.3,6.2
	c0,0-23.3,50.1-25.9,55.6c-2.6,5.4,3.6,5.7,3.6,5.7h22.4c5.7,0,3.2,4.1,3.2,4.1l-20,63.2l73.6-87.8
	C167.8,69.7,160.2,70.4,159.6,70.4"/>
<line fill="none" stroke="#FFFFFF" stroke-miterlimit="10" x1="223.6" y1="64.2" x2="283.7" y2="64.2"/>
<path d="M80.2,16.2H64c0,0-0.9,1.8-3.6,7h16L80.2,16.2z"/>
<g>
	<path fill="#CE2A23" d="M83.6,39.1h-0.3H70.2c-2.7,0.2-1.1-2.7-1.1-2.7l5.4-9.7H58.6c-4.4,8.7-10.3,20.2-10.9,21.7
		c-1.1,2.4,1.6,2.5,1.6,2.5h10.1c2.5,0,1.4,1.8,1.4,1.8l-6,19l-2,6.6c-0.5,1.5,0,1.7,1,0.5l6-7.1l25.2-30
		C87.3,38.9,83.9,39.1,83.6,39.1z"/>
</g>
</svg>
