<?xml version="1.0" encoding="utf-8"?>
<!-- Generator: Adobe Illustrator 18.0.0, SVG Export Plug-In . SVG Version: 6.00 Build 0)  -->
<!DOCTYPE svg PUBLIC "-//W3C//DTD SVG 1.1//EN" "http://www.w3.org/Graphics/SVG/1.1/DTD/svg11.dtd">
<svg version="1.1" id="Layer_1" xmlns="http://www.w3.org/2000/svg" xmlns:xlink="http://www.w3.org/1999/xlink" x="0px" y="0px"
	 viewBox="11.5 6.3 79.5 53.5" style="enable-background:new 11.5 6.3 79.5 53.5;" xml:space="preserve">
<style type="text/css">
	.st0{fill:none;stroke:#000000;stroke-width:3;stroke-miterlimit:10;}
	.st1{stroke:#000000;stroke-miterlimit:10;}
</style>
<path class="st0" d="M88.2,40.9c-0.3-1.9-1.2-4-2.3-5.6c-0.6-0.9-1.7-2.1-2.5-2.8c-1.7-1.4-3.5-2.4-5.4-2.9
	c-0.4-0.1-0.5-0.2-0.5-0.2c0,0,0-0.4,0.1-0.8c0.1-0.7,0.1-0.8,0.1-2c0-1.3-0.1-1.9-0.3-3c-0.5-2.8-1.8-5.5-3.6-7.8
	c-1.3-1.7-3-3.2-4.6-4.2c-1.9-1.1-5-2.3-6.5-2.5c-1-0.1-2.7-0.2-4.3-0.1c-0.7,0-1.7,0.1-2.3,0.2c-1.8,0.3-4.4,1.3-6.4,2.7
	c-1.2,0.8-2.1,1.5-3,2.5c-1.1,1.1-1.8,2-2.6,3.3l-0.3,0.6l-0.4-0.2c-2.7-1.3-6.3-1.6-9.2-0.9c-2.1,0.5-4.5,1.8-6.2,3.4
	c-0.2,0.2-0.4,0.4-0.4,0.4c-0.1,0.1-1,1.1-1.3,1.5c-0.4,0.6-1,1.4-1.3,2c-0.8,1.6-1.5,4-1.6,5.4l0,0.4l-0.9,0.5
	c-1.6,0.8-2.7,1.6-4,2.9c-1.1,1.2-1.9,2.2-2.5,3.4c-1.3,2.6-1.8,5.7-1.2,8.5c0.5,2.6,1.7,5,3.7,7c2.1,2.2,3.7,3.1,6.5,3.8
	c1.4,0.4,2.8,0.5,6.9,0.5c0.7,0,1.8,0,2.3,0c4.7,0.1,34.2,0.1,36.7,0.1c3.2-0.1,4.7-0.2,6.1-0.4c1.3-0.2,2.2-0.5,3.6-1.1
	c1.9-0.9,2.9-1.6,4.2-2.9c1.3-1.4,2.3-2.8,3-4.6C88.2,45.8,88.5,43.1,88.2,40.9z"/>
<path class="st1" d="M66.9,24.9c-0.1,0.2-0.3,0.4-12.1,12.1c-8.3,8.3-8.3,8.3-8.6,8.4c-0.1,0.1-0.2,0.1-0.5,0.1
	c-0.3,0-0.3,0-0.5-0.1c-0.3-0.2-9.5-9.3-9.6-9.5c-0.3-0.5-0.1-1.1,0.4-1.4c0.2-0.1,0.2-0.1,0.5-0.1c0.3,0,0.3,0,0.5,0.1
	c0.1,0.1,1.5,1.4,4.4,4.3c2.3,2.3,4.2,4.2,4.2,4.2c0.1,0,9.6-9.5,16.9-16.7c1.4-1.4,2.6-2.6,2.7-2.6c0.1,0,0.2-0.1,0.2-0.1
	c0.2-0.1,0.7,0,0.8,0c0.2,0.1,0.5,0.4,0.5,0.6C67,24.3,67,24.6,66.9,24.9z"/>
</svg>
